<svg xmlns="http://www.w3.org/2000/svg" xmlns:xlink="http://www.w3.org/1999/xlink" viewBox="0 0 48 48"><path fill="#64b5f6" d="M17,29h14v-0.013C31,25.681,28.319,23,25.013,23h-2.025C19.681,23,17,25.681,17,28.987V29z"/><path fill="#ff9800" d="M26.001 21h-4v3c0 0 .328 1 1.959 1 1.631 0 2.041-1 2.041-1V21zM27.5 17A1.5 1.5 0 1 0 27.5 20 1.5 1.5 0 1 0 27.5 17zM20.5 17A1.5 1.5 0 1 0 20.5 20 1.5 1.5 0 1 0 20.5 17z"/><path fill="#ffb74d" d="M28,15.216C28,13.01,26.206,13,24,13s-4,0.01-4,2.216c0,0.347,0,3.436,0,3.784c0,2.206,1.794,4,4,4 s4-1.794,4-4C28,18.653,28,15.564,28,15.216z"/><path fill="#424242" d="M23.781,11C21.344,11.219,19,12.93,19,16.574V18l1,1v-3l6.31-2.201L28,16v3l1-1v-1.203 c0-2.414-0.135-4.205-3-4.797l-0.485-1H23.781z"/><path fill="#ffc107" d="M4,39h40v4H4V39z"/><path fill="#455a64" d="M15,38c0,0.555,0.445,1,1,1h16c0.555,0,1-0.445,1-1V28c0-0.555-0.445-1-1-1H16c-0.555,0-1,0.445-1,1 V38z"/><path fill="#90caf9" d="M34 16l-4-5c4 0 6-6 6-6l4.969 4.962C40.969 9.962 38 16 34 16zM3 31l5 4c0 0 2-6 5-7l-5-4C5 25 3 31 3 31zM33 24l5 5c0 0 3-5 6-6l-5-5C36 19 33 24 33 24z"/><path fill="#bbdefb" d="M16 11v7c-6.222 0-9-2-9-2V9C7 9 10.667 11 16 11zM45 31l-2-6c-6.222 0-8 3-8 3l2 6C37 34 39.667 31 45 31z"/></svg>